<?xml version="1.0" encoding="UTF-8" standalone="no"?>
<!-- Created with Inkscape (http://www.inkscape.org/) -->

<svg
   xmlns:dc="http://purl.org/dc/elements/1.1/"
   xmlns:cc="http://creativecommons.org/ns#"
   xmlns:rdf="http://www.w3.org/1999/02/22-rdf-syntax-ns#"
   xmlns:svg="http://www.w3.org/2000/svg"
   xmlns="http://www.w3.org/2000/svg"
   xmlns:sodipodi="http://sodipodi.sourceforge.net/DTD/sodipodi-0.dtd"
   xmlns:inkscape="http://www.inkscape.org/namespaces/inkscape"
   width="245"
   height="245"
   id="svg2"
   version="1.1"
   inkscape:version="0.48.5 r10040"
   sodipodi:docname="New document 1">
  <defs
     id="defs4" />
  <sodipodi:namedview
     id="base"
     pagecolor="#ffffff"
     bordercolor="#666666"
     borderopacity="1.0"
     inkscape:pageopacity="0.0"
     inkscape:pageshadow="2"
     inkscape:zoom="0.7"
     inkscape:cx="568.52462"
     inkscape:cy="94.338554"
     inkscape:document-units="px"
     inkscape:current-layer="layer1"
     showgrid="true"
     fit-margin-top="0"
     fit-margin-left="0"
     fit-margin-right="0"
     fit-margin-bottom="0"
     inkscape:window-width="1366"
     inkscape:window-height="705"
     inkscape:window-x="-8"
     inkscape:window-y="-8"
     inkscape:window-maximized="1" />
  <metadata
     id="metadata7">
    <rdf:RDF>
      <cc:Work
         rdf:about="">
        <dc:format>image/svg+xml</dc:format>
        <dc:type
           rdf:resource="http://purl.org/dc/dcmitype/StillImage" />
        <dc:title></dc:title>
      </cc:Work>
    </rdf:RDF>
  </metadata>
  <g
     inkscape:label="Layer 1"
     inkscape:groupmode="layer"
     id="layer1"
     transform="translate(-44.926186,-283.92221)">
    <path
       sodipodi:type="arc"
       style="fill:#ea6154;fill-opacity:1;stroke:#ea6154;stroke-width:18.63035011;stroke-miterlimit:4;stroke-opacity:1;stroke-dasharray:none"
       id="path3853"
       sodipodi:cx="480"
       sodipodi:cy="427.00504"
       sodipodi:rx="107.14286"
       sodipodi:ry="102.5"
       d="m 587.14286,427.00504 c 0,56.60918 -47.96949,102.5 -107.14286,102.5 -59.17337,0 -107.14286,-45.89082 -107.14286,-102.5 0,-56.60919 47.96949,-102.5 107.14286,-102.5 59.17337,0 107.14286,45.89081 107.14286,102.5 z"
       transform="matrix(1.05,0,0,1.097561,-336.57381,-62.241859)" />
    <g
       id="g3836"
       style="fill:#ffffff">
      <path
         sodipodi:nodetypes="ccccccccccccccc"
         inkscape:connector-curvature="0"
         id="path2997"
         d="m 113.83902,383.4793 78.47673,119.95712 c 20.46289,-2.75783 35.67525,-17.4241 51.94483,-33.98264 L 165.78386,349.49665 z m 22.79689,6.50063 8.94144,-0.50537 53.95869,82.47961 -8.95009,0.49215 z m 25.97242,-16.99132 53.95004,82.46638 -4.03612,8.00352 -53.95869,-82.47961 z"
         style="fill:#ffffff;stroke:none" />
      <path
         inkscape:connector-curvature="0"
         id="path2999"
         d="m 104.89983,383.97366 64.92775,-42.47614 -4.90473,-7.49721 -64.927747,42.47614 z"
         style="fill:#ffffff;fill-opacity:1;stroke:none" />
      <path
         inkscape:connector-curvature="0"
         id="path3001"
         d="m 114.42397,361.68405 5.19422,-3.39808 -17.65702,-26.98996 -5.194207,3.39809 z"
         style="fill:#ffffff;fill-opacity:1;stroke:none" />
      <path
         inkscape:connector-curvature="0"
         id="path3003"
         d="m 103.7502,331.1962 2.42425,-4.79773 5.88567,8.99665 -2.42423,4.79774 z"
         style="fill:#ffffff;fill-opacity:1;stroke:none" />
      <path
         inkscape:connector-curvature="0"
         id="path3005"
         d="m 95.958873,336.29334 5.885667,8.99666 -5.367077,0.2994 -5.885666,-8.99665 5.367076,-0.29941"
         style="fill:#ffffff;fill-opacity:1;stroke:none" />
      <path
         inkscape:connector-curvature="0"
         id="path3007"
         d="m 111.88726,332.29644 1.96189,2.99889 -2.42424,4.79772 10.79039,16.49387 5.19422,-3.3981 -14.71417,-22.49163 z"
         style="fill:#ffffff;fill-opacity:1;stroke:none" />
      <path
         inkscape:connector-curvature="0"
         id="path3003-1"
         d="m 114.48438,330.59739 2.42424,-4.79773 5.88567,8.99665 -2.42425,4.79773 z"
         style="fill:#ffffff;fill-opacity:1;stroke:none" />
      <path
         inkscape:connector-curvature="0"
         id="path3001-7"
         d="m 140.39506,344.6936 5.19423,-3.39809 -17.65701,-26.98996 -5.19422,3.39809 z"
         style="fill:#ffffff;fill-opacity:1;stroke:none" />
      <path
         inkscape:connector-curvature="0"
         id="path3003-4"
         d="m 129.7213,314.20574 2.42426,-4.79773 5.88566,8.99665 -2.42424,4.79774 z"
         style="fill:#ffffff;fill-opacity:1;stroke:none" />
      <path
         inkscape:connector-curvature="0"
         id="path3005-0"
         d="m 121.92998,319.30288 5.88567,8.99666 -5.36709,0.2994 -5.88567,-8.99665 5.36709,-0.29941"
         style="fill:#ffffff;fill-opacity:1;stroke:none" />
    </g>
  </g>
</svg>
