<?xml version="1.0" encoding="UTF-8" standalone="no"?>
<!-- Generator: Adobe Illustrator 16.0.0, SVG Export Plug-In . SVG Version: 6.00 Build 0)  -->

<svg
   xmlns:dc="http://purl.org/dc/elements/1.1/"
   xmlns:cc="http://creativecommons.org/ns#"
   xmlns:rdf="http://www.w3.org/1999/02/22-rdf-syntax-ns#"
   xmlns:svg="http://www.w3.org/2000/svg"
   xmlns="http://www.w3.org/2000/svg"
   xmlns:sodipodi="http://sodipodi.sourceforge.net/DTD/sodipodi-0.dtd"
   xmlns:inkscape="http://www.inkscape.org/namespaces/inkscape"
   version="1.1"
   id="Layer_2"
   x="0px"
   y="0px"
   width="245"
   height="245"
   viewBox="0 0 245 245"
   enable-background="new 0 0 100 100"
   xml:space="preserve"
   inkscape:version="0.48.5 r10040"
   sodipodi:docname="book118.svg"><metadata
   id="metadata9"><rdf:RDF><cc:Work
       rdf:about=""><dc:format>image/svg+xml</dc:format><dc:type
         rdf:resource="http://purl.org/dc/dcmitype/StillImage" /><dc:title></dc:title></cc:Work></rdf:RDF></metadata><defs
   id="defs7" /><sodipodi:namedview
   pagecolor="#ffffff"
   bordercolor="#666666"
   borderopacity="1"
   objecttolerance="10"
   gridtolerance="10"
   guidetolerance="10"
   inkscape:pageopacity="0"
   inkscape:pageshadow="2"
   inkscape:window-width="1366"
   inkscape:window-height="705"
   id="namedview5"
   showgrid="false"
   fit-margin-top="0"
   fit-margin-left="0"
   fit-margin-right="0"
   fit-margin-bottom="0"
   inkscape:zoom="1.668772"
   inkscape:cx="269.38615"
   inkscape:cy="82.580382"
   inkscape:window-x="-8"
   inkscape:window-y="-8"
   inkscape:window-maximized="1"
   inkscape:current-layer="Layer_2" />

<path
   sodipodi:type="arc"
   style="fill:#ea6154;fill-opacity:1;stroke:#ea6154;stroke-width:18.63035011;stroke-miterlimit:4;stroke-opacity:1;stroke-dasharray:none"
   id="path3853"
   sodipodi:cx="480"
   sodipodi:cy="427.00504"
   sodipodi:rx="107.14286"
   sodipodi:ry="102.5"
   d="m 587.14286,427.00504 a 107.14286,102.5 0 1 1 -214.28572,0 107.14286,102.5 0 1 1 214.28572,0 z"
   transform="matrix(1.05,0,0,1.097561,-381.5,-346.16407)" /><g
   id="g3018"
   transform="matrix(1.8765019,0,0,1.8765019,25.270804,28.673031)"><path
     style="fill:#ffffff"
     id="path3"
     d="M 34.917,72.638 V 12.057 h 46.332 0.489 c 1.104,0 2,0.896 2,2 v 56.527 c 0,1.104 -0.896,2 -2,2 -0.012,0 -0.022,-0.003 -0.034,-0.003 -0.147,0.035 -0.3,0.058 -0.458,0.058 H 34.917 z m 46.821,15.307 c 1.104,0 2,-0.896 2,-2 v -7.528 c 0,-1.104 -0.896,-2 -2,-2 -1.104,0 -2,0.896 -2,2 v 5.528 H 34.917 v 4 h 46.821 z m -52.185,-4 c -3.039,0 -5.52,-2.413 -5.642,-5.422 0.003,-0.053 0.013,-0.104 0.012,-0.159 -0.002,-0.088 -0.005,-0.225 -0.007,-0.407 0.175,-2.961 2.633,-5.319 5.637,-5.319 h 1.364 V 12.057 h -1.361 c -5.323,0 -9.653,4.331 -9.653,9.653 0,0.071 0.014,0.139 0.021,0.208 -0.007,4.916 -0.068,50.088 -0.007,56.027 -0.004,0.116 -0.018,0.229 -0.018,0.346 0,5.118 4.007,9.307 9.047,9.623 0.101,0.016 0.2,0.031 0.305,0.031 h 1.666 v -4 h -1.364 z"
     inkscape:connector-curvature="0" /><g
     transform="translate(-3.7452701,5.3931861)"
     id="g3006"><g
       id="g3026"
       transform="matrix(2.5859135,0,0,2.5859135,72.511895,19.398056)"
       inkscape:transform-center-y="-4.4943228"
       inkscape:transform-center-x="-3.2958367"><rect
         rx="1"
         transform="matrix(0,1,-1,0,0,0)"
         y="0.67796493"
         x="-1.2881358"
         height="5.8305087"
         width="16.135593"
         id="rect2986-1"
         style="fill:#ea6154;fill-opacity:1;stroke:none" /><rect
         rx="1"
         transform="scale(-1,-1)"
         y="-9.6949158"
         x="-4.4745774"
         height="5.8305087"
         width="16.135593"
         id="rect2986-1-7"
         style="fill:#ea6154;fill-opacity:1;stroke:none" /></g></g></g></svg>