<?xml version="1.0" encoding="UTF-8" standalone="no"?>
<!-- Generator: Adobe Illustrator 16.0.0, SVG Export Plug-In . SVG Version: 6.00 Build 0)  -->

<svg
   xmlns:dc="http://purl.org/dc/elements/1.1/"
   xmlns:cc="http://creativecommons.org/ns#"
   xmlns:rdf="http://www.w3.org/1999/02/22-rdf-syntax-ns#"
   xmlns:svg="http://www.w3.org/2000/svg"
   xmlns="http://www.w3.org/2000/svg"
   xmlns:sodipodi="http://sodipodi.sourceforge.net/DTD/sodipodi-0.dtd"
   xmlns:inkscape="http://www.inkscape.org/namespaces/inkscape"
   version="1.1"
   id="Layer_2"
   x="0px"
   y="0px"
   width="245"
   height="245"
   viewBox="0 0 245 245"
   enable-background="new 0 0 100 100"
   xml:space="preserve"
   inkscape:version="0.48.5 r10040"
   sodipodi:docname="cleric.svg"><metadata
   id="metadata9"><rdf:RDF><cc:Work
       rdf:about=""><dc:format>image/svg+xml</dc:format><dc:type
         rdf:resource="http://purl.org/dc/dcmitype/StillImage" /><dc:title></dc:title></cc:Work></rdf:RDF></metadata><defs
   id="defs7" /><sodipodi:namedview
   pagecolor="#ffffff"
   bordercolor="#666666"
   borderopacity="1"
   objecttolerance="10"
   gridtolerance="10"
   guidetolerance="10"
   inkscape:pageopacity="0"
   inkscape:pageshadow="2"
   inkscape:window-width="1366"
   inkscape:window-height="705"
   id="namedview5"
   showgrid="false"
   fit-margin-top="0"
   fit-margin-left="0"
   fit-margin-right="0"
   fit-margin-bottom="0"
   inkscape:zoom="1.668772"
   inkscape:cx="269.38615"
   inkscape:cy="82.580382"
   inkscape:window-x="-8"
   inkscape:window-y="-8"
   inkscape:window-maximized="1"
   inkscape:current-layer="Layer_2" />

<path
   sodipodi:type="arc"
   style="fill:#ffffff;fill-opacity:1;stroke:#ffffff;stroke-width:18.63035010999999800;stroke-miterlimit:4;stroke-opacity:1;stroke-dasharray:none"
   id="path3853"
   sodipodi:cx="480"
   sodipodi:cy="427.00504"
   sodipodi:rx="107.14286"
   sodipodi:ry="102.5"
   d="m 587.14286,427.00504 a 107.14286,102.5 0 1 1 -214.28572,0 107.14286,102.5 0 1 1 214.28572,0 z"
   transform="matrix(1.05,0,0,1.097561,-381.5,-346.16407)" /><path
   inkscape:connector-curvature="0"
   d="M 90.792621,164.97838 V 51.298014 h 86.942089 0.91761 c 2.07165,0 3.753,1.681346 3.753,3.753004 V 161.12404 c 0,2.07166 -1.68135,3.753 -3.753,3.753 -0.0225,0 -0.0413,-0.006 -0.0638,-0.006 -0.27585,0.0657 -0.56296,0.10883 -0.85944,0.10883 H 90.792621 z m 87.859699,28.72361 c 2.07165,0 3.753,-1.68135 3.753,-3.753 v -14.12631 c 0,-2.07166 -1.68135,-3.753 -3.753,-3.753 -2.07166,0 -3.75301,1.68134 -3.75301,3.753 v 10.3733 H 90.792621 v 7.50601 h 87.859699 z m -97.925255,-7.50601 c -5.70269,0 -10.358291,-4.528 -10.587224,-10.17439 0.0056,-0.0994 0.02439,-0.19516 0.02252,-0.29836 -0.0038,-0.16514 -0.0094,-0.42222 -0.01314,-0.76374 0.328388,-5.55632 4.94083,-9.98111 10.577842,-9.98111 h 2.559548 V 51.298014 h -2.553919 c -9.988619,0 -18.113873,8.12713 -18.113873,18.113873 0,0.133232 0.02627,0.260834 0.03941,0.390313 -0.01314,9.224883 -0.127602,93.99023 -0.01314,105.13477 -0.0075,0.21768 -0.03378,0.42972 -0.03378,0.64927 0,9.60394 7.519143,17.4646 16.976713,18.05758 0.189527,0.03 0.3753,0.0582 0.572333,0.0582 h 3.126252 v -7.50601 h -2.559548 z"
   id="path3"
   style="fill:#ea6154;fill-opacity:1" /><g
   id="g3006"
   transform="matrix(1.8765019,0,0,1.8765019,18.242798,38.793355)"
   style="fill:#ffffff"><g
     inkscape:transform-center-x="-3.2958367"
     inkscape:transform-center-y="-4.4943228"
     transform="matrix(2.5859135,0,0,2.5859135,72.511895,19.398056)"
     id="g3026"
     style="fill:#ffffff"><rect
       style="fill:#ffffff;fill-opacity:1;stroke:none"
       id="rect2986-1"
       width="16.135593"
       height="5.8305087"
       x="-1.2881358"
       y="0.67796493"
       transform="matrix(0,1,-1,0,0,0)"
       rx="1" /><rect
       style="fill:#ffffff;fill-opacity:1;stroke:none"
       id="rect2986-1-7"
       width="16.135593"
       height="5.8305087"
       x="-4.4745774"
       y="-9.6949158"
       transform="scale(-1,-1)"
       rx="1" /></g></g></svg>