<?xml version="1.0" encoding="UTF-8" standalone="no"?>
<!-- Created with Inkscape (http://www.inkscape.org/) -->

<svg
   xmlns:dc="http://purl.org/dc/elements/1.1/"
   xmlns:cc="http://creativecommons.org/ns#"
   xmlns:rdf="http://www.w3.org/1999/02/22-rdf-syntax-ns#"
   xmlns:svg="http://www.w3.org/2000/svg"
   xmlns="http://www.w3.org/2000/svg"
   xmlns:sodipodi="http://sodipodi.sourceforge.net/DTD/sodipodi-0.dtd"
   xmlns:inkscape="http://www.inkscape.org/namespaces/inkscape"
   width="244.58438"
   height="245.44208"
   id="svg2"
   version="1.1"
   inkscape:version="0.48.5 r10040"
   sodipodi:docname="drawing2.svg">
  <defs
     id="defs4" />
  <sodipodi:namedview
     id="base"
     pagecolor="#ffffff"
     bordercolor="#666666"
     borderopacity="1.0"
     inkscape:pageopacity="0.0"
     inkscape:pageshadow="2"
     inkscape:zoom="1.4"
     inkscape:cx="156.06628"
     inkscape:cy="129.55208"
     inkscape:document-units="px"
     inkscape:current-layer="layer1"
     showgrid="false"
     inkscape:window-width="1366"
     inkscape:window-height="705"
     inkscape:window-x="-8"
     inkscape:window-y="-8"
     inkscape:window-maximized="1"
     fit-margin-top="0"
     fit-margin-left="0"
     fit-margin-right="0"
     fit-margin-bottom="0" />
  <metadata
     id="metadata7">
    <rdf:RDF>
      <cc:Work
         rdf:about="">
        <dc:format>image/svg+xml</dc:format>
        <dc:type
           rdf:resource="http://purl.org/dc/dcmitype/StillImage" />
        <dc:title></dc:title>
      </cc:Work>
    </rdf:RDF>
  </metadata>
  <g
     inkscape:label="Layer 1"
     inkscape:groupmode="layer"
     id="layer1"
     transform="translate(-396.3514,-427.13562)">
    <g
       id="g3001"
       transform="translate(365.51738,625.29029)" />
    <g
       id="g3003"
       transform="translate(365.51738,625.29029)" />
    <g
       id="g3005"
       transform="translate(365.51738,625.29029)" />
    <g
       id="g3007"
       transform="translate(365.51738,625.29029)" />
    <g
       id="g3009"
       transform="translate(365.51738,625.29029)" />
    <g
       id="g3011"
       transform="translate(365.51738,625.29029)" />
    <g
       id="g3013"
       transform="translate(365.51738,625.29029)" />
    <g
       id="g3015"
       transform="translate(365.51738,625.29029)" />
    <g
       id="g3017"
       transform="translate(365.51738,625.29029)" />
    <g
       id="g3019"
       transform="translate(365.51738,625.29029)" />
    <g
       id="g3021"
       transform="translate(365.51738,625.29029)" />
    <g
       id="g3023"
       transform="translate(365.51738,625.29029)" />
    <g
       id="g3025"
       transform="translate(365.51738,625.29029)" />
    <g
       id="g3027"
       transform="translate(365.51738,625.29029)" />
    <g
       id="g3029"
       transform="translate(365.51738,625.29029)" />
    <path
       sodipodi:type="arc"
       style="fill:#ea6154;stroke:#ea6154;stroke-width:18.63035010999999800;stroke-miterlimit:4;stroke-opacity:1;stroke-dasharray:none;fill-opacity:1"
       id="path3853"
       sodipodi:cx="480"
       sodipodi:cy="427.00504"
       sodipodi:rx="107.14286"
       sodipodi:ry="102.5"
       d="m 587.14286,427.00504 c 0,56.60918 -47.96949,102.5 -107.14286,102.5 -59.17337,0 -107.14286,-45.89082 -107.14286,-102.5 0,-56.60919 47.96949,-102.5 107.14286,-102.5 59.17337,0 107.14286,45.89081 107.14286,102.5 z"
       transform="matrix(1.05,0,0,1.097561,14.64359,81.198111)" />
    <path
       style="fill:#ffffff;fill-opacity:1;stroke:none"
       inkscape:connector-curvature="0"
       d="m 523.77769,483.24997 c -1.1841,-1.65412 -3.10035,-2.63936 -5.1341,-2.63936 -2.03827,0 -3.95,0.98072 -5.13862,2.63936 -12.69062,17.71174 -44.48497,64.29825 -44.48497,86.2402 0,27.40596 22.21311,49.62359 49.61907,49.62359 27.41048,0 49.62811,-22.21763 49.62811,-49.62359 0.005,-21.94195 -31.80339,-68.52846 -44.48949,-86.2402 z m -22.56111,114.32859 c -1.35583,1.61797 -3.30824,2.44955 -5.2742,2.44955 -1.55921,0 -3.14102,-0.5333 -4.43358,-1.61797 -19.56471,-16.47792 -12.81265,-40.81517 -12.51437,-41.85013 1.05755,-3.65172 4.84938,-5.75326 8.52369,-4.70927 3.65172,1.04852 5.75778,4.85841 4.72283,8.50109 -0.21242,0.78639 -4.4381,16.91631 8.15309,27.51443 2.90149,2.45406 3.2766,6.80178 0.82254,9.7123 z m 13.5448,13.68943 c -4.03587,0 -7.32151,-3.28113 -7.32151,-7.32152 0,-4.04491 3.28564,-7.32603 7.32151,-7.32603 4.04943,0 7.32151,3.28112 7.32151,7.32603 0,4.04491 -3.2766,7.32152 -7.32151,7.32152 z"
       id="path3074" />
    <path
       sodipodi:type="arc"
       style="fill:#ffffff;fill-opacity:1;stroke:none"
       id="path3873"
       sodipodi:cx="308.21429"
       sodipodi:cy="432.00504"
       sodipodi:rx="23.928572"
       sodipodi:ry="20.357143"
       d="m 332.14287,432.00504 c 0,11.24294 -10.71319,20.35714 -23.92858,20.35714 -13.21538,0 -23.92857,-9.1142 -23.92857,-20.35714 0,-11.24294 10.71319,-20.35715 23.92857,-20.35715 13.21539,0 23.92858,9.11421 23.92858,20.35715 z"
       transform="matrix(0.31343283,0,0,0.36842104,321.60981,237.8453)" />
    <path
       sodipodi:type="arc"
       style="fill:#ffffff;fill-opacity:1;stroke:none"
       id="path3768"
       sodipodi:cx="-137.85715"
       sodipodi:cy="92.584938"
       sodipodi:rx="46.42857"
       sodipodi:ry="47.142857"
       d="m -91.428577,92.584938 c 0,26.036282 -20.786783,47.142852 -46.428573,47.142852 -25.64179,0 -46.42857,-21.10657 -46.42857,-47.142852 0,-26.036281 20.78678,-47.142857 46.42857,-47.142857 25.64179,0 46.428573,21.106576 46.428573,47.142857 z"
       transform="matrix(0.38461536,0,0,0.4090909,574.37337,560.41633)" />
  </g>
</svg>
