<?xml version="1.0" encoding="UTF-8" standalone="no"?>
<!-- Generator: Adobe Illustrator 16.0.0, SVG Export Plug-In . SVG Version: 6.00 Build 0)  -->

<svg
   xmlns:dc="http://purl.org/dc/elements/1.1/"
   xmlns:cc="http://creativecommons.org/ns#"
   xmlns:rdf="http://www.w3.org/1999/02/22-rdf-syntax-ns#"
   xmlns:svg="http://www.w3.org/2000/svg"
   xmlns="http://www.w3.org/2000/svg"
   xmlns:sodipodi="http://sodipodi.sourceforge.net/DTD/sodipodi-0.dtd"
   xmlns:inkscape="http://www.inkscape.org/namespaces/inkscape"
   version="1.1"
   id="Layer_7"
   x="0px"
   y="0px"
   width="237.3678"
   height="400"
   viewBox="0 0 237.3678 399.99999"
   enable-background="new 0 0 100 100"
   xml:space="preserve"
   inkscape:version="0.48.5 r10040"
   sodipodi:docname="telefon.svg"><metadata
   id="metadata9"><rdf:RDF><cc:Work
       rdf:about=""><dc:format>image/svg+xml</dc:format><dc:type
         rdf:resource="http://purl.org/dc/dcmitype/StillImage" /><dc:title></dc:title></cc:Work></rdf:RDF></metadata><defs
   id="defs7" /><sodipodi:namedview
   pagecolor="#ffffff"
   bordercolor="#666666"
   borderopacity="1"
   objecttolerance="10"
   gridtolerance="10"
   guidetolerance="10"
   inkscape:pageopacity="0"
   inkscape:pageshadow="2"
   inkscape:window-width="1366"
   inkscape:window-height="705"
   id="namedview5"
   showgrid="false"
   fit-margin-top="0"
   fit-margin-left="0"
   fit-margin-right="0"
   fit-margin-bottom="0"
   inkscape:zoom="0.295"
   inkscape:cx="-886.23349"
   inkscape:cy="761.41423"
   inkscape:window-x="-8"
   inkscape:window-y="-8"
   inkscape:window-maximized="1"
   inkscape:current-layer="Layer_7" />
<path
   d="M 237.3678,151.7502 V 42.031503 h -2.92936 v -31.4562 C 234.43844,4.7377233 229.70071,-6.7480469e-6 223.86315,-6.7480469e-6 H 10.575296 C 4.7377327,-6.7480469e-6 0,4.7377233 0,10.575303 V 389.42468 c 0,5.83755 4.7377327,10.57531 10.575296,10.57531 H 223.86315 c 5.83756,0 10.57529,-4.73776 10.57529,-10.57531 v -59.21636 h 2.92936 v -34.3697 h -2.92936 V 151.7502 h 2.92936 z M 98.027703,11.960643 H 139.3401 v 5.28767 H 98.027703 v -5.28767 z M 133.58714,386.63808 c 0,0.86719 -0.70327,1.56515 -1.56515,1.56515 h -22.71045 c -0.86188,0 -1.56514,-0.69796 -1.56514,-1.56515 v -14.99046 c 0,-0.52348 0.26438,-1.0047 0.6874,-1.30078 l 11.36316,-7.63538 c 0.53404,-0.34893 1.21615,-0.34893 1.7502,0 l 11.35786,7.63538 c 0.51291,0.33838 0.76672,0.94647 0.67683,1.53345 v 14.75779 z m 85.93485,-48.63049 c 0,5.83756 -4.73773,10.57531 -10.5753,10.57531 H 25.592216 c -5.837563,0 -10.575296,-4.73775 -10.575296,-10.57531 V 38.086923 c 0,-5.83757 4.737733,-10.57531 10.575296,-10.57531 H 208.94669 c 5.83757,0 10.57529,4.73774 10.57529,10.57531 V 338.00759 z"
   id="path3"
   inkscape:connector-curvature="0"
   style="fill:#ffffff" />
</svg>